<svg height="512" viewBox="0 0 512 512" width="512" xmlns="http://www.w3.org/2000/svg" xmlns:xlink="http://www.w3.org/1999/xlink"><linearGradient id="linear-gradient" gradientUnits="userSpaceOnUse" x1="55.361" x2="433.018" y1="455.361" y2="77.704"><stop offset="0" stop-color="#41dfd0"/><stop offset="1" stop-color="#ee83ef"/></linearGradient><path d="m54.16 201.68 12.07 10.5c-14.73 16.92-24.59 34.82-29.31 53.2l-15.49-3.98c5.34-20.82 16.35-40.91 32.73-59.72zm364.11 156.79 9.75 12.69c19.29-14.82 34.84-31.36 46.22-49.15l-13.48-8.63c-10.38 16.23-24.68 31.4-42.49 45.09zm-3.9 22.46-8.88-13.31a279.876 279.876 0 0 1 -56.25 28.61l5.67 14.96a295.57 295.57 0 0 0 59.46-30.26zm68.29-73.89c10.87-22.28 14.81-45.04 11.71-67.63l-.06-.48-15.85 2.23.06.4c2.66 19.41-.79 39.09-10.24 58.47zm-30.24-142.12-10.62 11.96c16.48 14.65 27.72 31.38 33.4 49.71l15.28-4.74c-6.55-21.16-19.36-40.31-38.06-56.93zm-433.61 139.61a111.73 111.73 0 0 0 14.35 41.24l13.83-8.05a95.971 95.971 0 0 1 -12.33-35.36 94.067 94.067 0 0 1 -.38-22.19l-15.92-1.61a110.532 110.532 0 0 0 .45 25.97zm85.077-164.858 23.81-6.619a143.916 143.916 0 0 1 26.375-37.006l4.256-32.515a7.994 7.994 0 0 1 4.4-6.138l40.93-20.17a8 8 0 0 1 7.545.253l28.375 16.433a145.147 145.147 0 0 1 96.8 22.4l17.965-17.966 24-24a8 8 0 0 1 13.246 3.127l16 48a8 8 0 0 1 -11.7 9.39l-34.649-20.788-11.8 11.8a143.97 143.97 0 0 1 33.66 39.993c21.11 7.269 39.931 16.816 56 28.409l-9.36 12.97a189.023 189.023 0 0 0 -36.793-20.447 145.2 145.2 0 0 1 4.726 86.853l12.139 29.62a8 8 0 0 1 -.771 7.51l-25.53 37.82a8 8 0 0 1 -6.631 3.524h-.046l-30.343-.174a146 146 0 0 1 -25.126 15.741 143.8 143.8 0 0 1 -105.9 8.743 172.936 172.936 0 0 0 22.762 18.11l20.195 13.455h37.578a32 32 0 0 1 0 64h-37.578l-20.191 13.46a172.56 172.56 0 0 0 -42.431 40.14 26.125 26.125 0 0 1 -20.8 10.4h-15a8 8 0 0 1 -8-8v-49.376a23.885 23.885 0 0 1 -8 1.376h-16a8 8 0 0 1 -8-8v-64a8 8 0 0 1 8-8h16a23.885 23.885 0 0 1 8 1.376v-49.376a7.994 7.994 0 0 1 6.838-7.906 145.665 145.665 0 0 1 -44.378-82.159l-25.3-24.611a7.988 7.988 0 0 1 -2.4-5.3q-5.1 4.331-9.806 8.873l-11.124-11.497a230.752 230.752 0 0 1 26.886-22.218l5.562-21.782a8 8 0 0 1 5.609-5.728zm269.013-77.26 12.67 7.6-5.07-15.202zm-188.9 305.588v-42.695c-.333-.436-.671-.866-1-1.305a10.046 10.046 0 0 0 -8-4h-7v48zm-48 24h8a8 8 0 0 0 0-16h-8zm16 24a8.009 8.009 0 0 0 -8-8h-8v16h8a8.009 8.009 0 0 0 8-8zm31 60c.329-.439.667-.869 1-1.3v-42.7h-16v48h7a10.046 10.046 0 0 0 8-4zm46.578-44h-29.578v24.322a188.622 188.622 0 0 1 29.356-24.174zm66.422-48h-128v8h32v16h-32v8h128a16 16 0 0 0 0-32zm-66.644-16.148a188.622 188.622 0 0 1 -29.356-24.174v24.322h29.578zm-116.721-214-9 35.236 23.881 23.232a8 8 0 0 1 2.333 4.544 128.969 128.969 0 0 0 208.83 80.857 8.177 8.177 0 0 1 5.085-1.786l28.879.166 20.739-30.724-11.536-28.148a8 8 0 0 1 -.308-5.167 129.068 129.068 0 0 0 -6.213-86.146c-.788-1.781-1.6-3.522-2.406-5.16-.963-1.953-2-3.928-3.166-6.029a128.962 128.962 0 0 0 -130.69-64.6 7.993 7.993 0 0 1 -5.144-1l-27.033-15.659-33.25 16.386-4.054 30.974a8 8 0 0 1 -2.343 4.686 128.121 128.121 0 0 0 -26.659 37.658 8 8 0 0 1 -5.107 4.326zm223.365 46.148h16v-16h-16zm-64-64a32 32 0 1 1 32 32 32.036 32.036 0 0 1 -32-32zm16 0a16 16 0 1 0 16-16 16.019 16.019 0 0 0 -16 16zm-64 40a24 24 0 1 1 24 24 24.027 24.027 0 0 1 -24-24zm16 0a8 8 0 1 0 8-8 8.009 8.009 0 0 0 -8 8zm-40 104a24 24 0 1 1 24 24 24.027 24.027 0 0 1 -24-24zm16 0a8 8 0 1 0 8-8 8.009 8.009 0 0 0 -8 8zm88-40h16v-16h-16zm-104-112h-16v16h16zm96 264h-16v16h16zm-32 0h-16v16h16zm-32 0h-16v16h16zm-128-32h-32v16h32zm0 48v-16h-16v16zm-32 32h32v-16h-32zm-32-64h16v-16h-16zm16 48h-16v16h16zm16-32h-56v16h56z" fill="url(#linear-gradient)"/></svg>