<?xml version="1.0"?>
<svg xmlns="http://www.w3.org/2000/svg" xmlns:xlink="http://www.w3.org/1999/xlink" id="gradient" viewBox="0 0 512 512" width="512" height="512"><defs><linearGradient id="linear-gradient" x1="86.295" y1="425.705" x2="465.657" y2="46.343" gradientUnits="userSpaceOnUse"><stop offset="0" stop-color="#41dfd0"/><stop offset="1" stop-color="#ee83ef"/></linearGradient></defs><path d="M478.988,187.35a8,8,0,0,0-7.027,7.777,151.306,151.306,0,0,1-39.866,99.5,51.417,51.417,0,0,0-10.939-1.978l10.272-25.675a8,8,0,0,0-4.9-10.562l-8.278-2.759A47.665,47.665,0,0,0,382.8,255.69l-45.489-7.582c-.9-.149-4.426-.108-5.315-.108h-8a28.04,28.04,0,0,0-27.71,24H261.659a55.836,55.836,0,0,0,.714-29.379c-.037-.2-.216-.891-.262-1.031a55.959,55.959,0,0,0-78.93-35.771c-.035.014-.8.38-1.13.579a56.244,56.244,0,0,0-12.28,8.735A153.214,153.214,0,0,1,168,192,152,152,0,0,1,316.872,40.038,8,8,0,0,0,318.8,24.317,239.813,239.813,0,1,0,487.683,193.2,8,8,0,0,0,478.988,187.35ZM431.2,311.252c.125.054.249.1.375.151a36.277,36.277,0,0,1,5.328,2.821l-22.868,34.3-19.894-14.919,11.533-23.065.44-.146a36.475,36.475,0,0,1,4.172-1.117l.078-.014A35.635,35.635,0,0,1,431.2,311.252Zm-40.927-41.393a31.768,31.768,0,0,1,22.917-1.029l.231.076-10.272,25.677c-.7.2-1.4.4-2.1.633l-.44.147-17.12-8.56Zm-1.006,37.719-8.845,17.689L360,315.056V292.944ZM372.88,270.257l-3.747,9.366-9.175-4.588a27.683,27.683,0,0,0-1.2-7.131Zm-13.031,62.612,7.328,3.663q-4.263,1.391-8.6,2.526A29.781,29.781,0,0,0,359.849,332.869ZM312,280v-4a12.013,12.013,0,0,1,12-12h8a11.488,11.488,0,0,1,2.612.3A12.033,12.033,0,0,1,344,276v54a14.031,14.031,0,0,1-9.7,13.321,153.5,153.5,0,0,1-22.3.465Zm-32,8h16v16H280Zm-16,0v24a8,8,0,0,0,8,8h24v22.108a151,151,0,0,1-23.583-5.709c-3.318-1.089-6.607-2.314-9.849-3.639a28.011,28.011,0,0,0-17.147-35.141,56.459,56.459,0,0,0,8.5-9.619Zm-74,48a14.015,14.015,0,0,1-14-14V301.917a55.645,55.645,0,0,0,28.307,9.948C208,312,236,312,236,312a12,12,0,0,1,0,24Zm34,16v16H214a6.006,6.006,0,0,1-6-6V352Zm16,0v-.294a27.794,27.794,0,0,0,13.129-5.554c4.672,2.031,9.458,3.859,14.287,5.446A167.117,167.117,0,0,0,296,358.281V368H240ZM208,216a40.047,40.047,0,0,1,36.5,23.658l-18.86,8.084A23.941,23.941,0,0,0,208,240c-.523,0-1.04.023-1.555.056L196.818,217.6A39.861,39.861,0,0,1,208,216Zm8,48a8,8,0,1,1-8-8A8.009,8.009,0,0,1,216,264Zm-33.375-38.9,9.117,21.262A23.994,23.994,0,1,0,232,264c0-.522-.023-1.039-.056-1.553l16.045-6.877c0,.144.011.286.011.43a40,40,0,1,1-65.375-30.9ZM414.392,414.392A224,224,0,0,1,97.608,97.608,222.533,222.533,0,0,1,256,32q5.829,0,11.639.3A168.135,168.135,0,0,0,157.03,232.848,55.841,55.841,0,0,0,160,284.81V322a30.034,30.034,0,0,0,30,30h2v10a22.025,22.025,0,0,0,22,22h90a8,8,0,0,0,8-8V359.807c2.671.125,5.343.193,8,.193h10a29.829,29.829,0,0,0,7.145-.875,166.476,166.476,0,0,0,48.024-12.248L406.126,362.6a14.074,14.074,0,0,0,8.419,2.8,13.985,13.985,0,0,0,11.629-6.233l28.482-42.722a8,8,0,0,0-2.218-11.094l-5.31-3.54A167.241,167.241,0,0,0,479.7,244.289q.3,5.846.3,11.711A222.535,222.535,0,0,1,414.392,414.392ZM376,200H360V184h16Zm-16,32V216h16v16Zm0-32v16H344V200Zm16,16V200h16v16ZM304,96H288V80h16Zm-16,32h16v16H288Zm-24-8V104h16v16Zm48-16h16v16H312Zm88,0a8,8,0,0,1,5.657,13.657L387.313,136H400a8,8,0,0,1,0,16H368a8,8,0,0,1-5.657-13.657L380.687,120H368a8,8,0,0,1,0-16Zm78.146-34.879L449.081,104H472a8,8,0,0,1,0,16H432a8,8,0,0,1-6.146-13.121L454.919,72H432a8,8,0,0,1,0-16h40a8,8,0,0,1,6.146,13.121ZM72,192H88v16H72Zm32,24h16v16H104ZM72,240H88v16H72ZM288,416h16v16H288Zm-32,24h16v16H256Z" style=""/></svg>
